<svg width="1400" height="900" viewBox="0 0 1400 900" fill="none" xmlns="http://www.w3.org/2000/svg">
  <rect width="1400" height="900" fill="#F8F5EF"/>
  <rect x="72" y="70" width="1256" height="760" rx="8" fill="#FBFAF7" stroke="#E3DACB"/>
  <path d="M123 658C307 560 491 511 675 511C859 511 1043 560 1227 658" stroke="#D9CAB5" stroke-width="3"/>
  <rect x="286" y="228" width="660" height="42" rx="21" transform="rotate(27 286 228)" fill="#2E241B"/>
  <rect x="864" y="520" width="174" height="42" rx="6" transform="rotate(27 864 520)" fill="#C8A35C"/>
  <path d="M1015 607C1061 622 1109 652 1158 695C1118 700 1074 692 1026 671L997 656L1015 607Z" fill="#1F2933"/>
  <path d="M1027 613C1066 629 1104 653 1141 684" stroke="#F1E8D7" stroke-width="3" stroke-linecap="round"/>
  <rect x="250" y="426" width="718" height="36" rx="18" transform="rotate(-11 250 426)" fill="#6B3F2A"/>
  <rect x="945" y="292" width="155" height="36" rx="6" transform="rotate(-11 945 292)" fill="#D1AA63"/>
  <path d="M1087 265C1135 242 1187 228 1244 223C1215 261 1177 288 1131 305L1098 318L1087 265Z" fill="#243229"/>
  <path d="M1104 267C1141 249 1181 239 1225 235" stroke="#F4EDDD" stroke-width="3" stroke-linecap="round"/>
  <rect x="193" y="584" width="760" height="32" rx="16" transform="rotate(-2 193 584)" fill="#3D3027"/>
  <rect x="925" y="559" width="152" height="32" rx="6" transform="rotate(-2 925 559)" fill="#BE9856"/>
  <path d="M1069 556C1124 542 1179 540 1236 548C1199 579 1153 596 1099 599L1070 600L1069 556Z" fill="#5C1F22"/>
  <circle cx="265" cy="252" r="58" fill="#B84A36" opacity="0.95"/>
  <circle cx="342" cy="690" r="42" fill="#D7A43B" opacity="0.85"/>
  <circle cx="1128" cy="431" r="50" fill="#2E6656" opacity="0.9"/>
  <path d="M159 742H1243" stroke="#D8C9B5" stroke-width="2"/>
</svg>
