<svg width="900" height="675" viewBox="0 0 900 675" fill="none" xmlns="http://www.w3.org/2000/svg">
  <rect width="900" height="675" fill="#FBFAF7"/>
  <rect x="64" y="64" width="772" height="547" rx="8" fill="#F7F3EC" stroke="#DED3C2"/>
  <circle cx="238" cy="185" r="54" fill="#2E6656" opacity=".78"/>
  <circle cx="704" cy="500" r="44" fill="#C27A2C" opacity=".7"/>
  <path d="M148 480C270 410 402 375 544 375C626 375 696 388 754 414" stroke="#D6C8B7" stroke-width="3"/>
  <g transform="translate(96 265) rotate(-7)">
    <rect x="0" y="125" width="520" height="44" rx="22" fill="#6B3F2A"/>
    <rect x="494" y="116" width="132" height="62" rx="8" fill="#D0A75C"/>
    <path d="M610 105C663 78 722 67 788 72C759 122 715 158 657 181L615 197L610 105Z" fill="#2F2A24"/>
    <path d="M635 113C674 94 717 84 762 84" stroke="#F8F0E2" stroke-width="5" stroke-linecap="round"/>
    <path d="M635 139C674 122 711 113 747 113" stroke="#F8F0E2" stroke-width="4" stroke-linecap="round" opacity=".8"/>
  </g>
  <rect x="150" y="515" width="600" height="2" fill="#D8CCBA"/>
</svg>
